<svg id="Camada_2" data-name="Camada 2" xmlns="http://www.w3.org/2000/svg" viewBox="0 0 509.6 425.34"><defs><style>.cls-1,.cls-2{stroke:#ccc;stroke-miterlimit:10;}.cls-1{stroke-width:1.22px;}.cls-2{stroke-width:0.64px;}</style></defs><title>smaug-logo</title><path class="cls-1" d="M291.66,227.13a39.78,39.78,0,0,1,6,.85,20.85,20.85,0,0,0-1.69-2.15C294.43,224.1,293.09,225,291.66,227.13Z" transform="translate(-74.02 -23.85)"/><path class="cls-1" d="M372.36,225.83a18.81,18.81,0,0,0-1.39,1.73,38,38,0,0,1,5.47-.83C375.11,224.87,373.84,224.21,372.36,225.83Z" transform="translate(-74.02 -23.85)"/><path class="cls-1" d="M388.79,354c12.87-11.59,22.43-26.4,25.26-44.28,3.11-19.69-2.53-39.22-12.24-55.93a1.06,1.06,0,0,1-.17.1s0,14.05-15.22,20.44c-15.23,2.56-17.57,0-17.57,0s16.4-3.83,16.4-8.94a4.87,4.87,0,0,1-.56-.75c-.94,1.07-1.91,2.16-3,3.3-4.79,1.74-8.35,2-11,1.59a23.88,23.88,0,0,1-10.87,5.72c5.33,9.26,5.77,20.29,3.93,28.16-2.77,11.85-21.48,17.89-34.54,18.35,9.58,7.69,18,16.2,28.36,22.55C369.53,351.64,379.9,354.3,388.79,354Z" transform="translate(-74.02 -23.85)"/><path class="cls-1" d="M286.18,383.47a170.14,170.14,0,0,0,29.86.77,122.14,122.14,0,0,0,30.3-6.12,98.29,98.29,0,0,0-29.43-4.05C298.31,374.07,295.09,380.79,286.18,383.47Z" transform="translate(-74.02 -23.85)"/><path class="cls-1" d="M276,224c3.57-5.7,8.15-12.73,11.8-17.37,4.68-10.22,23.42,7.67,25.77,11.5a10.15,10.15,0,0,1,1.17,7.67,38.16,38.16,0,0,1,2.88,10.82c1.08.72,2.16,1.46,3.21,2.25,2.4,1.8,24.46,1.66,26.88-.18,1-.76,2-1.48,3-2.17a37.93,37.93,0,0,1,2.87-10.72,10.15,10.15,0,0,1,1.17-7.67,37,37,0,0,1,5.83-6.2c-25.35-15.09-47.08-16.43-56.83-27.18-4.05-4.48-9-13.68,1-24-8.39-4.51-15-12.85-11.12-30.89,1.17,10.22,11.72,12.78,11.72,12.78V127.3S293.67,117.08,290.16,103a24.23,24.23,0,0,1-2.12-2.31c-30.65,19.08-55.12,59.72-38.15,94.17,4.8,9.74,12.64,19.7,24.17,29.39,1.24-.67,2-1,2-1Z" transform="translate(-74.02 -23.85)"/><path class="cls-1" d="M290.16,103c3.51,14.06,15.23,24.28,15.23,24.28v15.33s-10.55-2.56-11.72-12.78c-3.89,18,2.73,26.38,11.12,30.89a40.38,40.38,0,0,0,5.28,2.33c12.89-5.11,21.09,0,21.09,0s8.2-5.11,21.08,0c10.54-3.84,21.09-11.5,16.4-33.22-1.17,10.22-11.71,12.78-11.71,12.78V127.3s11.71-10.22,15.22-24.28c9.38-8.94,21.09-35.77-11.71-76.65,10.54,43.44-4.69,48.55-4.69,48.55s7-5.11-9.37-24.27c5.86,19.16-15.22,24.27-15.22,24.27s-21.09-5.11-15.23-24.27c-16.4,19.16-9.37,24.27-9.37,24.27s-15.23-5.11-4.69-48.55C271.53,64.2,279.29,90,288,100.71A24.23,24.23,0,0,0,290.16,103Z" transform="translate(-74.02 -23.85)"/><path class="cls-1" d="M428.71,319.86c-1.29,8.68-14.48,33.43-39.92,34.18-8.89.26-19.26-2.4-31.15-9.69-10.34-6.35-18.78-14.86-28.36-22.55-13-10.41-28-19.32-52.79-19.32-21.35,0-41.36,14-44,36.43-2,16.69,11.27,38.9,29.27,43.26,12.54,3,19.41,2.82,24.45,1.3,8.91-2.68,12.13-9.4,30.73-9.4a98.29,98.29,0,0,1,29.43,4.05c10.25,3.07,17.09,6.76,27.07,6.76,16.65,0,23.85-3.2,35.48-12.16C430.47,356.08,429.35,328.36,428.71,319.86Z" transform="translate(-74.02 -23.85)"/><path class="cls-1" d="M364.16,265.43s12.89-2.56,11.71-6.39,3.52-8.94,3.52-8.94-2.34-10.22,3.51-11.5c-2.71-4.44-4.64-9.3-6.46-11.87a38,38,0,0,0-5.47.83c-2.33,3.23-3.54,6.32-11.49,8.49,0,0-5.75,2.11-6.84,8.2a15.71,15.71,0,0,1,3.17-.31,15.25,15.25,0,0,1,8,2.23l-8.39,7.09-8.07-6.9a14.32,14.32,0,0,1,4.19-1.86,17.63,17.63,0,0,1-.83-7.95c-1,.69-2,1.41-3,2.17-2.42,1.84-24.48,2-26.88.18-1.05-.79-2.13-1.53-3.21-2.25.3,3.29,0,6.78-1.69,9.59a3.33,3.33,0,0,1,.47,1.67,3.28,3.28,0,0,1-.7,2,4.77,4.77,0,0,1-3.85,1.8c-2.5,0-4.52-1.72-4.51-3.82a3.3,3.3,0,0,1,.55-1.78,4.92,4.92,0,0,1,8,.09c0-7.61-7-10.15-7-10.15-7.61-2.08-9-5-11.19-8.07a39.78,39.78,0,0,0-6-.85c-1.74,2.65-3.61,7.25-6.19,11.47,5.86,1.28,3.52,11.5,3.52,11.5s4.68,5.11,3.51,8.94,11.71,6.39,11.71,6.39-1.49,3.26-6.44,4.11c4.16,4.12,10.72,6.78,18.11,6.75l37.18-.15a29.7,29.7,0,0,0,6.83-.85,23.88,23.88,0,0,0,10.87-5.72C365.69,268.76,364.16,265.43,364.16,265.43Zm2.78-16.62a10.32,10.32,0,0,1-.32,14l-8.07-6.91Zm-64.15,10.5c-2.51,0-4.53-1.72-4.52-3.83s2-3.8,4.54-3.79,4.53,1.71,4.52,3.82S305.29,259.31,302.79,259.31Zm9,7.64c-2.5,0-4.52-1.72-4.52-3.82s2.05-3.81,4.55-3.8,4.52,1.72,4.52,3.82S314.32,267,311.82,267Zm9.09-7.6c-2.5,0-4.52-1.72-4.52-3.82a4,4,0,0,1,3.56-3.7,5.36,5.36,0,0,1,1-.1,4.62,4.62,0,0,1,4.15,2.32,3.36,3.36,0,0,1,.37,1.5C325.45,257.66,323.41,259.36,320.91,259.35Zm22.83,1.94A10.29,10.29,0,0,1,342,255.6a10.54,10.54,0,0,1,2.36-6.54l8,6.83-7.16,6.05-.6.51A13.91,13.91,0,0,1,343.74,261.29Zm12,6a16.21,16.21,0,0,1-2.54-.22,15,15,0,0,1-5.51-2L349,264l6.47-5.46,8,6.82A15.45,15.45,0,0,1,355.73,267.33Z" transform="translate(-74.02 -23.85)"/><path class="cls-1" d="M270.25,233.49s2.45-4.16,5.77-9.46l.08-.76s-.8.33-2,1c-4.76,2.55-16,10.1-13.19,23.27,3.52,5.11,5.86,6.39,5.86,6.39s0,14.05,15.23,20.44c15.23,2.56,17.57,0,17.57,0s-16.4-3.83-16.4-8.94a4.87,4.87,0,0,0,.56-.75C260.53,238.22,270.25,233.49,270.25,233.49Z" transform="translate(-74.02 -23.85)"/><path class="cls-1" d="M304.21,265.43s-12.88-2.56-11.71-6.39S289,250.1,289,250.1s2.34-10.22-3.52-11.5c2.58-4.22,4.45-8.82,6.19-11.47,1.43-2.16,2.77-3,4.36-1.3a20.85,20.85,0,0,1,1.69,2.15c2.15,3.07,3.58,6,11.19,8.07,0,0,7,2.54,7,10.15a.17.17,0,0,1,0,.07l0,0c1.7-2.81,2-6.3,1.69-9.59a38.16,38.16,0,0,0-2.88-10.82,10.15,10.15,0,0,0-1.17-7.67c-2.35-3.83-21.09-21.72-25.77-11.5-3.65,4.64-8.23,11.67-11.8,17.37-3.32,5.3-5.77,9.46-5.77,9.46s-9.72,4.73,13.44,31.19c.94,1.07,1.91,2.16,2.95,3.3,4.89,1.78,8.5,2,11.13,1.56C302.72,268.69,304.21,265.43,304.21,265.43Z" transform="translate(-74.02 -23.85)"/><path class="cls-1" d="M384.69,264.68a4.87,4.87,0,0,0,.56.75c0,5.11-16.4,8.94-16.4,8.94s2.34,2.56,17.57,0c15.22-6.39,15.22-20.44,15.22-20.44a1.06,1.06,0,0,0,.17-.1c.59-.38,2.72-2,5.69-6.29,3.52-16.6-15.23-24.27-15.23-24.27l.09.76c3.32,5.3,5.77,9.46,5.77,9.46S407.85,238.22,384.69,264.68Z" transform="translate(-74.02 -23.85)"/><path class="cls-1" d="M354.79,218.16a10.15,10.15,0,0,0-1.17,7.67,37.93,37.93,0,0,0-2.87,10.72,17.63,17.63,0,0,0,.83,7.95,11.16,11.16,0,0,0,.87,1.77,11.55,11.55,0,0,1,.19-2c1.09-6.09,6.84-8.2,6.84-8.2,7.95-2.17,9.16-5.26,11.49-8.49a18.81,18.81,0,0,1,1.39-1.73c1.48-1.62,2.75-1,4.08.9,1.82,2.57,3.75,7.43,6.46,11.87-5.85,1.28-3.51,11.5-3.51,11.5s-4.69,5.11-3.52,8.94-11.71,6.39-11.71,6.39,1.53,3.33,6.6,4.14c2.62.41,6.18.15,11-1.59,1-1.14,2-2.23,3-3.3,23.16-26.46,13.44-31.19,13.44-31.19s-2.45-4.16-5.77-9.46c-3.58-5.7-8.16-12.73-11.8-17.37-3.26-7.11-13.33-.61-19.94,5.3A37,37,0,0,0,354.79,218.16Z" transform="translate(-74.02 -23.85)"/><path class="cls-1" d="M267.9,80.19S95.12,127,74.63,218.6c0,97.24,164,166.91,164,166.91S125.25,311.62,118,234.1C130.08,160.81,267.9,80.19,267.9,80.19Z" transform="translate(-74.02 -23.85)"/><path class="cls-1" d="M389.72,80.19S562.51,127,583,218.6c0,97.24-164,166.91-164,166.91s113.36-73.89,120.6-151.41C527.55,160.81,389.72,80.19,389.72,80.19Z" transform="translate(-74.02 -23.85)"/><path class="cls-2" d="M165.82,437.05A29,29,0,0,1,152.34,434l-2.17,2h-2.62l-.45-14.38h2.68a27,27,0,0,0,5.56,8.37,28.67,28.67,0,0,0,4.28,2.43,11.88,11.88,0,0,0,5.5,1.21,9.9,9.9,0,0,0,6.49-1.88,5.32,5.32,0,0,0,2.26-4.06q0-4.41-7.86-6.64-3-.9-8.94-2.75-8.82-3.13-8.82-11.25,0-4.86,4.5-8.4t12.18-3.55a26.13,26.13,0,0,1,11.95,2.75l1.92-1.66h2.68l.26,13.54h-2.69a29.83,29.83,0,0,0-4.86-8.24,10.7,10.7,0,0,0-8.18-3.58,9,9,0,0,0-5.17,1.47,5.13,5.13,0,0,0-2.49,4.47q0,4.29,7.66,6.59l4.67,1.4c1.66.47,3.09.92,4.28,1.34q9.27,3.21,9.27,11.19a10.5,10.5,0,0,1-5,9Q174.07,437,165.82,437.05Z" transform="translate(-74.02 -23.85)"/><path class="cls-2" d="M203.85,430.91a5.8,5.8,0,0,1-1.82,4.28,6,6,0,0,1-4.32,1.79,6.06,6.06,0,0,1-4.38-1.79,5.8,5.8,0,0,1-1.82-4.28,5.91,5.91,0,0,1,1.82-4.35,6,6,0,0,1,4.38-1.78,6.22,6.22,0,0,1,6.14,6.13Z" transform="translate(-74.02 -23.85)"/><path class="cls-2" d="M271.78,398.45c-3.37.17-5.31.76-5.82,1.79a4.16,4.16,0,0,0-.44,1.79v46.84h-2.37c-.3-.81-.6-1.62-.89-2.43a10.08,10.08,0,0,0-1.67-2.56q-2.55-2.94-4.09-3.13V401.07l-13.22,34.38h-5.82a35.67,35.67,0,0,0-1.41-3.71l-1.79-4.41-10.54-26.71V424.2q0,6.33,2.17,7.92a8.28,8.28,0,0,0,2.82,1.16c.55.17,1.27.38,2.17.63v2.18h-21v-2.18a18.6,18.6,0,0,1,1.91-.38q3.84-.63,4.54-3.71a23.77,23.77,0,0,0,.45-5.3V404.77q0-3.51-2-4.85a6.19,6.19,0,0,0-2.56-1.15c-.38-.09-1.06-.2-2-.32v-2.24h20.4l11,26.36,10.07-26.36h20.12Z" transform="translate(-74.02 -23.85)"/><path class="cls-2" d="M290.57,430.91a5.77,5.77,0,0,1-1.83,4.28,6,6,0,0,1-4.31,1.79,6.06,6.06,0,0,1-4.38-1.79,5.8,5.8,0,0,1-1.82-4.28,5.91,5.91,0,0,1,1.82-4.35,6,6,0,0,1,4.38-1.78,6.23,6.23,0,0,1,6.14,6.13Z" transform="translate(-74.02 -23.85)"/><path class="cls-2" d="M345.72,436.09H322.2v-2.18c4.17-.29,6.26-.85,6.26-1.66a5.44,5.44,0,0,0-.32-1.28l-2.49-7.6H311a17.83,17.83,0,0,0-1.22,2q-.76,1.86-1.79,5a7.57,7.57,0,0,0-.13,1c0,.64.52,1.15,1.54,1.54,0,0,.3.23.76.57a4,4,0,0,0,1.73.38v2.18H293.76v-2.18a11.25,11.25,0,0,0,4.35-1,8.48,8.48,0,0,0,3.64-4l2.87-6.2a32.74,32.74,0,0,0-3.83-3.71,39.56,39.56,0,0,0,3.8-1.79,16.9,16.9,0,0,0,3.49-2l.95-2.05,8-17.44h6.27L332.87,417q3.58,8.11,5.88,13a6.18,6.18,0,0,0,4.86,3.51,12.6,12.6,0,0,0,2.11.32Zm-21.35-17.7-5.17-14.45-6.33,14.45Z" transform="translate(-74.02 -23.85)"/><path class="cls-2" d="M361.25,430.91a5.77,5.77,0,0,1-1.83,4.28,6,6,0,0,1-4.31,1.79,6.06,6.06,0,0,1-4.38-1.79,5.8,5.8,0,0,1-1.82-4.28,5.91,5.91,0,0,1,1.82-4.35,6,6,0,0,1,4.38-1.78,6.23,6.23,0,0,1,6.14,6.13Z" transform="translate(-74.02 -23.85)"/><path class="cls-2" d="M419.34,398.19c-.3,0-1,.17-2,.38q-3.77.65-4.53,3.58a21.45,21.45,0,0,0-.51,5.44v14.82A12.88,12.88,0,0,1,407.39,433c-3.29,2.64-7.84,4-13.68,4q-9.46,0-14.64-3.83-4.53-3.37-4.53-10.72v-2.68q-3.07-3.31-4.48-3.76c.9-.26,2.39-1.51,4.48-3.77V402q0-2.75-4-3.51c-.17,0-1-.15-2.56-.32V396h23.2v2.17q-1.84.13-5.37.7c-1.36.39-2,1.77-2,4.16V421.9c0,3.49,1,6.15,2.91,8s4.76,2.71,8.47,2.71,6.45-1,8.49-3q2.43-2.37,2.43-8.13V407.92c0-4.27-.72-6.93-2.17-8a8.27,8.27,0,0,0-2.88-1.09,5.38,5.38,0,0,0-1.53-.64V396h19.88Z" transform="translate(-74.02 -23.85)"/><path class="cls-2" d="M436.72,430.91a5.8,5.8,0,0,1-1.82,4.28,6.17,6.17,0,0,1-8.69,0,5.77,5.77,0,0,1-1.83-4.28,5.88,5.88,0,0,1,1.83-4.35,6,6,0,0,1,4.37-1.78,6.22,6.22,0,0,1,6.14,6.13Z" transform="translate(-74.02 -23.85)"/><path class="cls-2" d="M493.15,419.6a14.64,14.64,0,0,0-3.58.64,2.75,2.75,0,0,0-2.11,3v25.63h-2.31a17.67,17.67,0,0,0-3.25-5,8.89,8.89,0,0,0-5.56-3.13v-4.66a39.73,39.73,0,0,1-9.25.83q-10,0-16.33-5.31a18.17,18.17,0,0,1-6.64-12,32.56,32.56,0,0,0-3.82-3.71,33.6,33.6,0,0,0,3.83-3.83,20.07,20.07,0,0,1,1.53-4.41q3.45-8.11,12.66-11.25a32,32,0,0,1,10.16-1.53,28.91,28.91,0,0,1,12.27,2.62l2-1.54h2.68l.26,14.51H483q-2.43-6.52-5.69-9.71c-1.79-1.66-4.58-2.5-8.37-2.5q-6.46,0-9.27,4.09-3.26,4.68-3.26,13a28.26,28.26,0,0,0,2.36,12.33Q462,434,468.67,434q5.24,0,8.18-2.49V423.5c0-1.83-1.45-3-4.35-3.52-.93-.17-1.72-.3-2.36-.38v-2.17h23Z" transform="translate(-74.02 -23.85)"/><path class="cls-2" d="M510.53,430.91a5.8,5.8,0,0,1-1.82,4.28,6.17,6.17,0,0,1-8.69,0,5.77,5.77,0,0,1-1.83-4.28,5.88,5.88,0,0,1,1.83-4.35,6,6,0,0,1,4.37-1.78,6.22,6.22,0,0,1,6.14,6.13Z" transform="translate(-74.02 -23.85)"/></svg>